<?xml version="1.0" encoding="UTF-8" standalone="no"?>
<svg
   xmlns:dc="http://purl.org/dc/elements/1.1/"
   xmlns:cc="http://creativecommons.org/ns#"
   xmlns:rdf="http://www.w3.org/1999/02/22-rdf-syntax-ns#"
   xmlns:svg="http://www.w3.org/2000/svg"
   xmlns="http://www.w3.org/2000/svg"
   xmlns:sodipodi="http://sodipodi.sourceforge.net/DTD/sodipodi-0.dtd"
   xmlns:inkscape="http://www.inkscape.org/namespaces/inkscape"
   viewBox="0 0 16 15.999555"
   height="15.999555"
   width="16"
   xml:space="preserve"
   version="1.1"
   id="svg2"
   inkscape:version="0.91 r13725"
   sodipodi:docname="LinkedIn.svg"><sodipodi:namedview
     pagecolor="#ffffff"
     bordercolor="#666666"
     borderopacity="1"
     objecttolerance="10"
     gridtolerance="10"
     guidetolerance="10"
     inkscape:pageopacity="0"
     inkscape:pageshadow="2"
     inkscape:window-width="1366"
     inkscape:window-height="704"
     id="namedview12"
     showgrid="false"
     fit-margin-top="0"
     fit-margin-left="0"
     fit-margin-right="0"
     fit-margin-bottom="0"
     inkscape:zoom="1.3111111"
     inkscape:cx="7.9142358"
     inkscape:cy="7.9997775"
     inkscape:window-x="0"
     inkscape:window-y="27"
     inkscape:window-maximized="1"
     inkscape:current-layer="g10" /><metadata
     id="metadata8"><rdf:RDF><cc:Work
         rdf:about=""><dc:format>image/svg+xml</dc:format><dc:type
           rdf:resource="http://purl.org/dc/dcmitype/StillImage" /><dc:title></dc:title></cc:Work></rdf:RDF></metadata><defs
     id="defs6" /><g
     transform="matrix(1.25,0,0,-1.25,-82.0025,97.999778)"
     id="g10"><path
       inkscape:connector-curvature="0"
       d="m 77.454471,78.399822 -10.907706,0 c -0.521235,0 -0.944765,-0.413144 -0.944765,-0.922374 l 0,-10.95382 c 0,-0.509677 0.42353,-0.92345 0.944765,-0.92345 l 10.907706,0 c 0.522207,0 0.947529,0.413773 0.947529,0.92345 l 0,10.95382 c 0,0.50923 -0.425322,0.922374 -0.947529,0.922374"
       style="fill:#18679e;fill-opacity:1;fill-rule:nonzero;stroke:none"
       id="path14" /><path
       inkscape:connector-curvature="0"
       d="m 68.449423,76.63756 c 0.60689,0 1.10021,-0.493231 1.10021,-1.100325 0,-0.607716 -0.49332,-1.100983 -1.10021,-1.100983 -0.60849,0 -1.100947,0.493267 -1.100947,1.100983 0,0.607094 0.492457,1.100325 1.100947,1.100325 m -0.949733,-3.036316 1.89856,0 0,-6.108408 -1.89856,0 0,6.108408"
       style="fill:#ffffff;fill-opacity:1;fill-rule:nonzero;stroke:none"
       id="path16" /><path
       inkscape:connector-curvature="0"
       d="m 70.589088,73.601244 1.820776,0 0,-0.834705 0.02546,0 c 0.253424,0.480297 0.872749,0.986568 1.796333,0.986568 1.922497,0 2.277421,-1.265165 2.277421,-2.909635 l 0,-3.350636 -1.897192,0 0,2.970611 c 0,0.708309 -0.01307,1.619431 -0.986533,1.619431 -0.98775,0 -1.139408,-0.771543 -1.139408,-1.568215 l 0,-3.021827 -1.896854,0 0,6.108408"
       style="fill:#ffffff;fill-opacity:1;fill-rule:nonzero;stroke:none"
       id="path18" /></g></svg>